<?xml version="1.0" encoding="utf-8"?>
<!-- Generator: Adobe Illustrator 22.1.0, SVG Export Plug-In . SVG Version: 6.00 Build 0)  -->
<svg version="1.1" id="Layer_1" xmlns="http://www.w3.org/2000/svg" xmlns:xlink="http://www.w3.org/1999/xlink" x="0px" y="0px"
	 viewBox="0 0 213.2 210.7" style="enable-background:new 0 0 213.2 210.7;" xml:space="preserve">
<style type="text/css">
	.st0{fill:none;stroke:#000000;stroke-miterlimit:10;}
	.st1{fill:#FFFFFF;stroke:#000000;stroke-miterlimit:10;}
</style>
<circle class="st0" cx="106.6" cy="105.4" r="101.6"/>
<ellipse transform="matrix(0.2092 -0.9779 0.9779 0.2092 -18.7329 187.594)" class="st0" cx="106.6" cy="105.4" rx="88.6" ry="88.6"/>
<g>
	<path class="st0" d="M96.8,114.8c0,0-34.3,29.3-65.7,11.2c-8.7-5-13.6-14.5-13.1-24.5c0.6-10.6,5-18.8,12.5-25
		c6.7-5.6,16.5-5,22.8,1c11.1,10.7,26,16.5,43.4,19.1l9.9,8.8L96.8,114.8z"/>
	<path class="st0" d="M116,115.3c0,0,29.3,34.3,11.2,65.7c-5,8.7-14.5,13.6-24.5,13.1c-10.6-0.6-18.8-5-25-12.5
		c-5.6-6.7-5-16.5,1-22.8c10.7-11.1,16.5-26,19.1-43.4l8.8-9.9L116,115.3z"/>
	<path class="st0" d="M116.4,96c0,0,34.3-29.3,65.7-11.2c8.7,5,13.6,14.5,13.1,24.5c-0.6,10.6-5,18.8-12.5,25
		c-6.7,5.6-16.5,5-22.8-1c-11.1-10.7-26-16.5-43.4-19.1l-9.9-8.8L116.4,96z"/>
	<path class="st0" d="M97.2,95.5c0,0-29.3-34.3-11.2-65.7c5-8.7,14.5-13.6,24.5-13.1c10.6,0.6,18.8,5,25,12.5c5.6,6.7,5,16.5-1,22.8
		c-10.7,11.1-16.6,26-19.1,43.4l-8.8,9.9L97.2,95.5z"/>
</g>
<ellipse transform="matrix(0.2095 -0.9778 0.9778 0.2095 -18.7632 187.5477)" class="st1" cx="106.6" cy="105.4" rx="30.8" ry="30.8"/>
<rect x="92.5" y="91.2" transform="matrix(0.7071 0.7071 -0.7071 0.7071 105.7412 -44.524)" class="st0" width="28.3" height="28.3"/>
</svg>
